<svg width="766" height="320" viewBox="0 0 766 320" fill="none" xmlns="http://www.w3.org/2000/svg">
<path d="M63.7301 106V27.24H76.2151V94.23H112.9V106H63.7301ZM154.107 107.815C148.424 107.815 143.455 106.568 139.202 104.075C134.949 101.582 131.649 98.0983 129.302 93.625C126.992 89.1517 125.837 83.9083 125.837 77.895V76.08C125.837 70.1767 126.992 65.0067 129.302 60.57C131.649 56.1333 134.912 52.6867 139.092 50.23C143.309 47.7733 148.204 46.545 153.777 46.545C158.764 46.545 163.109 47.6083 166.812 49.735C170.552 51.8617 173.449 54.8867 175.502 58.81C177.555 62.6967 178.582 67.2433 178.582 72.45C178.582 73.9167 178.527 75.31 178.417 76.63C178.344 77.9133 178.197 79.16 177.977 80.37H132.877V71.79H166.922C166.922 67.17 165.73 63.5217 163.347 60.845C161 58.1317 157.792 56.775 153.722 56.775C148.845 56.775 144.959 58.5167 142.062 62C139.165 65.4833 137.717 70.2683 137.717 76.355V77.62C137.717 83.67 139.202 88.4733 142.172 92.03C145.142 95.55 149.194 97.31 154.327 97.31C160.524 97.31 165.125 94.45 168.132 88.73L178.197 94.12C175.85 98.5933 172.642 102.003 168.572 104.35C164.502 106.66 159.68 107.815 154.107 107.815ZM213.134 107.815C209.284 107.815 205.874 107.045 202.904 105.505C199.934 103.928 197.606 101.765 195.919 99.015C194.269 96.2283 193.444 93.0383 193.444 89.445V88.675C193.444 82.7717 195.461 78.06 199.494 74.54C203.564 71.02 208.954 69.26 215.664 69.26C218.634 69.26 221.402 69.59 223.969 70.25C226.572 70.8733 228.901 71.7533 230.954 72.89V81.25C227.397 78.9767 223.181 77.84 218.304 77.84C214.417 77.84 211.356 78.7567 209.119 80.59C206.919 82.3867 205.819 84.8983 205.819 88.125V88.785C205.819 91.7917 206.772 94.1383 208.679 95.825C210.586 97.5117 213.189 98.355 216.489 98.355C219.166 98.355 221.494 97.695 223.474 96.375C225.491 95.0183 227.067 93.1483 228.204 90.765C229.341 88.345 229.909 85.6133 229.909 82.57V68.875C229.909 64.9883 228.901 61.9817 226.884 59.855C224.867 57.6917 221.861 56.61 217.864 56.61C212.474 56.61 207.671 58.7 203.454 62.88L196.469 55.455C202.116 49.515 209.486 46.545 218.579 46.545C226.022 46.545 231.742 48.4883 235.739 52.375C239.772 56.2617 241.789 61.615 241.789 68.435V106H230.349V97.97H229.909C228.222 101.05 225.949 103.47 223.089 105.23C220.266 106.953 216.947 107.815 213.134 107.815ZM270.401 101.765V48.305H280.906V60.68H281.511C283.271 56.1333 285.746 52.65 288.936 50.23C292.126 47.7733 295.811 46.545 299.991 46.545C302.961 46.545 305.564 47.1317 307.801 48.305C310.074 49.4417 312.274 51.2933 314.401 53.86L306.261 63.265C304.574 61.285 302.888 59.8917 301.201 59.085C299.551 58.2417 297.644 57.82 295.481 57.82C291.301 57.82 288.038 59.4333 285.691 62.66C283.381 65.85 282.226 70.3233 282.226 76.08V101.765H270.401ZM257.311 106V96.485H300.926V106H257.311ZM258.411 57.875V48.305H276.011V57.875H258.411ZM326.623 106V48.305H338.118V57.105H338.503C340.703 53.695 343.38 51.0917 346.533 49.295C349.723 47.4617 353.353 46.545 357.423 46.545C363.143 46.545 367.598 48.4517 370.788 52.265C373.978 56.0417 375.573 61.1383 375.573 67.555V106H363.363V69.81C363.363 65.6667 362.447 62.5133 360.613 60.35C358.78 58.15 356.067 57.05 352.473 57.05C348.403 57.05 345.103 58.4433 342.573 61.23C340.08 64.0167 338.833 67.83 338.833 72.67V106H326.623ZM462.772 106L450.452 48.305H461.617L468.052 85.98L468.987 92.47H469.262L470.252 85.98L476.907 54.905H487.962L494.672 85.815L495.607 92.47H495.937L496.872 85.815L503.252 48.305H514.032L501.657 106H490.107L483.452 74.265L482.407 67.445H482.077L480.977 74.265L474.322 106H462.772ZM544.899 102.315V48.305H556.889V102.315H544.899ZM525.704 106V96.43H575.094V106H525.704ZM526.804 57.875V48.305H554.139V57.875H526.804ZM549.354 36.315C546.824 36.315 544.643 35.4167 542.809 33.62C541.013 31.8233 540.114 29.66 540.114 27.13C540.114 24.5267 541.013 22.3817 542.809 20.695C544.643 18.9717 546.824 18.11 549.354 18.11C551.994 18.11 554.176 18.9717 555.899 20.695C557.623 22.3817 558.484 24.545 558.484 27.185C558.484 29.6783 557.623 31.8233 555.899 33.62C554.176 35.4167 551.994 36.315 549.354 36.315ZM624.331 107.815C617.291 107.815 611.828 105.872 607.941 101.985C604.091 98.0617 602.166 92.58 602.166 85.54V33.07H614.431V84.66C614.431 88.73 615.275 91.7367 616.961 93.68C618.685 95.6233 621.306 96.595 624.826 96.595C628.53 96.595 631.921 95.0917 635.001 92.085L641.381 101.16C636.725 105.597 631.041 107.815 624.331 107.815ZM587.151 58.205V48.305H637.971V58.205H587.151ZM656.408 106V25.7H668.618V56.06H669.003C673.55 49.7167 679.618 46.545 687.208 46.545C692.855 46.545 697.292 48.415 700.518 52.155C703.745 55.895 705.358 61.0283 705.358 67.555V106H693.148V69.81C693.148 61.3033 689.518 57.05 682.258 57.05C678.152 57.05 674.852 58.4617 672.358 61.285C669.865 64.1083 668.618 67.8483 668.618 72.505V106H656.408Z" fill="#727363"/>
<path d="M100.942 288.511C84.5422 288.511 70.7422 284.911 59.5422 277.711C48.4755 270.511 40.2089 260.911 34.7422 248.911C29.2755 236.911 26.5422 223.711 26.5422 209.311C26.5422 194.911 29.2755 181.777 34.7422 169.91C40.2089 157.911 48.4755 148.311 59.5422 141.111C70.7422 133.911 84.5422 130.311 100.942 130.311C120.142 130.311 135.676 134.844 147.542 143.911C159.409 152.977 166.942 165.311 170.142 180.911H138.542C136.009 172.911 131.542 166.777 125.142 162.51C118.876 158.244 110.742 156.111 100.742 156.111C91.2755 156.111 83.2089 158.444 76.5422 163.111C70.0089 167.644 65.0089 173.91 61.5422 181.91C58.2089 189.911 56.5422 198.977 56.5422 209.111C56.5422 225.111 60.5422 238.044 68.5422 247.911C76.6755 257.777 88.2755 262.711 103.342 262.711C112.542 262.711 120.409 260.844 126.942 257.111C133.609 253.244 138.209 247.977 140.742 241.311C141.676 238.911 142.409 236.044 142.942 232.711C143.342 229.111 144.209 226.644 145.542 225.311L143.142 222.911C141.276 224.377 139.476 225.377 137.742 225.911C136.009 226.311 133.409 226.511 129.942 226.511H109.142V202.711H171.542V285.711H145.342V263.911H142.142C142.142 270.711 139.009 276.244 132.742 280.511C125.009 285.844 114.409 288.511 100.942 288.511ZM227.209 287.911C216.276 287.911 207.409 285.044 200.609 279.311C193.809 273.444 190.409 265.311 190.409 254.911C190.409 243.711 194.676 235.177 203.209 229.311C209.343 225.044 218.076 221.844 229.409 219.711L262.809 213.511C262.809 206.844 261.009 201.577 257.409 197.711C254.076 194.111 249.076 192.311 242.409 192.311C237.209 192.311 232.609 193.844 228.609 196.911C224.743 199.977 222.343 204.111 221.409 209.311H194.609C196.476 196.911 201.943 187.444 211.009 180.911C220.076 174.377 230.609 171.111 242.609 171.111C249.409 171.111 255.743 172.111 261.609 174.111C267.476 175.977 272.476 178.777 276.609 182.511C280.743 186.111 283.743 190.311 285.609 195.111C287.476 199.911 288.609 204.711 289.009 209.511C289.543 214.311 289.809 220.244 289.809 227.311V285.711H262.809V282.511C262.809 279.044 263.676 275.511 265.409 271.911L262.409 270.311C260.009 275.244 256.676 279.111 252.409 281.911C246.409 285.911 238.009 287.911 227.209 287.911ZM233.809 266.711C238.743 266.711 243.543 265.644 248.209 263.511C252.476 261.511 255.876 258.577 258.409 254.711C259.609 252.711 260.543 250.777 261.209 248.911C261.876 246.911 262.609 244.177 263.409 240.711C263.676 239.111 264.076 237.977 264.609 237.311C265.276 236.511 266.209 236.044 267.409 235.911L266.809 232.711C256.143 234.844 249.276 236.244 246.209 236.911L236.609 238.711C229.409 240.044 224.209 242.177 221.009 245.111C218.609 247.511 217.409 250.444 217.409 253.911C217.409 258.044 218.876 261.244 221.809 263.511C224.876 265.644 228.876 266.711 233.809 266.711ZM371.973 287.911C364.773 287.911 358.707 286.644 353.773 284.111C348.84 281.577 344.24 277.177 339.973 270.911L337.173 272.711C338.24 274.177 338.973 275.644 339.373 277.111C339.907 278.444 340.173 280.111 340.173 282.111V285.711H313.173V133.111H340.173V177.111C340.173 179.111 339.907 180.777 339.373 182.111C338.973 183.444 338.24 184.844 337.173 186.311L339.973 188.311C344.24 182.044 348.84 177.644 353.773 175.111C358.707 172.444 364.773 171.111 371.973 171.111C381.707 171.111 390.307 173.577 397.773 178.511C405.24 183.444 411.04 190.377 415.173 199.311C419.307 208.111 421.373 218.177 421.373 229.511C421.373 240.844 419.307 250.977 415.173 259.911C411.04 268.711 405.24 275.577 397.773 280.511C390.307 285.444 381.707 287.911 371.973 287.911ZM365.773 264.711C374.307 264.711 381.173 261.444 386.373 254.911C391.573 248.244 394.173 239.777 394.173 229.511C394.173 219.244 391.573 210.844 386.373 204.311C381.173 197.644 374.307 194.311 365.773 194.311C357.24 194.311 350.24 197.577 344.773 204.111C339.44 210.644 336.773 219.111 336.773 229.511C336.773 239.911 339.44 248.377 344.773 254.911C350.24 261.444 357.24 264.711 365.773 264.711ZM441.489 285.711V173.511H468.489V177.111C468.489 179.244 468.289 180.977 467.889 182.311C467.489 183.644 466.689 184.977 465.489 186.311L468.289 188.311C472.422 182.177 477.022 177.777 482.089 175.111C487.156 172.444 493.289 171.111 500.489 171.111H503.689V197.111H497.489C488.956 197.111 482.289 199.377 477.489 203.911C474.422 206.977 472.156 210.911 470.689 215.711C469.222 220.377 468.489 226.377 468.489 233.711V285.711H441.489ZM546.614 285.711H519.614V173.511H546.614V285.711ZM533.214 161.111C528.547 161.111 524.614 159.711 521.414 156.91C518.214 154.111 516.614 150.377 516.614 145.711C516.614 141.311 518.214 137.644 521.414 134.71C524.614 131.777 528.547 130.311 533.214 130.311C537.747 130.311 541.614 131.777 544.814 134.71C548.147 137.644 549.814 141.311 549.814 145.711C549.814 150.244 548.214 153.977 545.014 156.91C541.814 159.711 537.881 161.111 533.214 161.111ZM623.777 287.911C612.443 287.911 602.443 285.444 593.777 280.511C585.11 275.577 578.377 268.777 573.577 260.111C568.91 251.311 566.577 241.377 566.577 230.311C566.577 220.044 568.643 210.444 572.777 201.511C577.043 192.444 583.377 185.111 591.777 179.511C600.31 173.911 610.71 171.111 622.977 171.111C633.11 171.111 642.443 173.244 650.977 177.511C659.51 181.644 666.377 188.111 671.577 196.911C676.777 205.577 679.377 216.377 679.377 229.311V235.111H608.177C607.377 235.111 605.177 235.111 601.577 235.111C597.977 235.111 595.11 234.911 592.977 234.511L592.177 237.511C593.243 237.777 594.043 238.311 594.577 239.111C595.243 239.911 595.777 241.044 596.177 242.511C597.243 245.311 598.11 247.244 598.777 248.311C601.443 253.511 604.977 257.577 609.377 260.511C613.91 263.311 619.043 264.711 624.777 264.711C630.91 264.711 636.177 263.177 640.577 260.111C644.977 256.911 648.11 252.844 649.977 247.911H677.577C673.977 259.777 667.643 269.444 658.577 276.911C649.51 284.244 637.91 287.911 623.777 287.911ZM595.377 217.911C597.377 216.711 599.177 215.911 600.777 215.511C602.377 215.111 604.177 214.911 606.177 214.911H640.977C643.11 214.911 644.977 215.111 646.577 215.511C648.31 215.911 650.243 216.711 652.377 217.911L653.977 215.111C653.043 214.577 652.377 214.111 651.977 213.711C651.577 213.177 651.243 212.644 650.977 212.111C650.843 211.577 650.777 211.244 650.777 211.111C650.243 208.844 649.177 206.644 647.577 204.511C645.043 200.644 641.71 197.711 637.577 195.711C633.443 193.577 628.843 192.511 623.777 192.511C618.71 192.511 614.11 193.511 609.977 195.511C605.977 197.511 602.71 200.511 600.177 204.511C598.443 206.644 597.31 208.844 596.777 211.111C596.777 211.244 596.643 211.644 596.377 212.311C596.11 212.844 595.777 213.377 595.377 213.911C594.977 214.311 594.377 214.711 593.577 215.111L595.377 217.911ZM724.706 285.711C716.173 285.711 709.706 283.777 705.306 279.911C700.906 275.911 698.706 269.644 698.706 261.111V133.111H725.706V253.111C725.706 256.844 726.373 259.511 727.706 261.111C729.173 262.577 731.573 263.311 734.906 263.311H742.106V285.711H724.706Z" fill="#727363"/>
</svg>
