<svg xmlns="http://www.w3.org/2000/svg" xmlns:xlink="http://www.w3.org/1999/xlink" width="1200" zoomAndPan="magnify" viewBox="0 0 900 899.99999" height="1200" preserveAspectRatio="xMidYMid meet" version="1.0"><defs><clipPath id="466de32191"><path d="M 0 235.125 L 900 235.125 L 900 664.875 L 0 664.875 Z M 0 235.125 " clip-rule="nonzero"/></clipPath></defs><g clip-path="url(#466de32191)"><path fill="#727363" d="M 215.136719 235.125 C 259.746094 235.125 301.226562 248.796875 335.640625 272.085938 C 351.976562 261.078125 369.820312 252.15625 388.824219 245.902344 C 410.027344 238.949219 432.621094 235.125 456.140625 235.125 C 505.5 235.125 551.035156 251.808594 587.300781 279.847656 C 618.933594 259.339844 656.707031 247.40625 697.144531 247.40625 C 809.070312 247.40625 899.796875 338.128906 899.796875 450.058594 C 899.796875 561.871094 809.070312 652.59375 697.144531 652.59375 C 656.707031 652.59375 618.933594 640.660156 587.300781 620.265625 C 551.035156 648.191406 505.5 664.875 456.140625 664.875 C 432.621094 664.875 410.027344 661.050781 388.824219 654.097656 C 369.820312 647.84375 351.976562 638.921875 335.640625 627.914062 C 301.226562 651.320312 259.746094 664.875 215.136719 664.875 C 155.8125 664.875 102.050781 640.890625 63.121094 601.960938 C 24.304688 563.027344 0.203125 509.382812 0.203125 450.058594 C 0.203125 390.734375 24.304688 336.972656 63.121094 298.039062 C 102.050781 259.226562 155.699219 235.125 215.136719 235.125 Z M 25.230469 437.660156 L 87.570312 437.660156 C 89.304688 384.476562 102.515625 336.394531 122.792969 300.707031 C 128.238281 291.203125 134.148438 282.628906 140.519531 274.867188 C 117.925781 284.484375 97.648438 298.386719 80.5 315.421875 C 48.867188 347.167969 28.246094 390.039062 25.230469 437.660156 Z M 112.25 437.660156 L 202.738281 437.660156 L 202.738281 261.195312 C 180.378906 266.292969 159.984375 285.0625 144.113281 312.871094 C 125.804688 344.964844 113.984375 388.765625 112.25 437.660156 Z M 227.417969 437.660156 L 317.910156 437.660156 C 316.289062 388.765625 304.355469 344.964844 286.046875 312.871094 C 270.175781 285.0625 249.78125 266.292969 227.417969 261.195312 Z M 342.589844 437.660156 L 404.929688 437.660156 L 404.929688 437.082031 L 404.8125 435.691406 L 404.8125 435.34375 L 404.695312 434.300781 L 404.582031 432.910156 L 404.464844 431.519531 L 404.347656 430.59375 L 404.347656 430.011719 L 404.234375 428.621094 L 404.117188 428.160156 L 403.886719 425.839844 L 403.886719 425.726562 L 403.652344 424.453125 L 403.539062 423.410156 L 403.539062 423.0625 L 403.304688 421.671875 L 403.191406 420.976562 L 403.074219 420.28125 L 402.84375 418.890625 L 402.84375 418.65625 L 402.378906 416.339844 L 402.378906 416.226562 L 402.148438 414.835938 L 401.914062 414.023438 L 401.914062 413.445312 L 401.566406 412.054688 L 401.453125 411.707031 L 400.988281 409.390625 L 400.988281 409.273438 L 400.523438 407.070312 L 400.410156 406.722656 L 400.0625 405.332031 C 399.480469 402.785156 398.902344 400.351562 398.089844 397.917969 L 397.976562 397.339844 C 396.703125 393.050781 395.3125 388.765625 393.804688 384.59375 L 393.804688 384.363281 C 391.949219 379.378906 389.863281 374.398438 387.546875 369.53125 L 387.546875 369.414062 L 386.621094 367.445312 L 386.390625 366.980469 L 384.535156 363.390625 L 384.535156 363.273438 L 382.566406 359.566406 L 382.449219 359.335938 L 381.871094 358.292969 L 381.289062 357.25 L 381.175781 357.132812 L 380.480469 355.859375 L 380.132812 355.277344 L 379.785156 354.699219 L 379.089844 353.425781 L 378.972656 353.308594 L 378.394531 352.265625 L 377.816406 351.339844 L 377.699219 351.109375 L 377.003906 349.832031 L 376.65625 349.371094 L 376.191406 348.675781 L 375.960938 348.441406 L 374.6875 346.355469 L 374.105469 345.546875 L 373.992188 345.199219 L 373.179688 344.039062 L 372.949219 343.578125 L 372.371094 342.882812 L 369.9375 339.40625 L 369.242188 338.363281 L 368.894531 338.015625 L 368.3125 337.203125 L 367.617188 336.160156 L 367.503906 336.046875 L 366.691406 335.003906 L 366.226562 334.308594 L 365.878906 333.84375 L 364.953125 332.800781 L 364.839844 332.570312 L 364.144531 331.640625 L 362.40625 329.554688 L 361.476562 328.398438 C 359.972656 326.660156 358.464844 324.921875 356.957031 323.183594 L 356.03125 322.140625 L 355.917969 322.023438 L 355.105469 321.097656 L 354.179688 320.171875 L 353.25 319.128906 L 351.28125 317.160156 L 351.28125 317.042969 L 349.660156 315.421875 L 349.3125 315.1875 L 348.386719 314.144531 L 348.039062 313.796875 L 347.34375 313.21875 L 346.414062 312.292969 L 346.300781 312.292969 L 345.371094 311.25 L 344.675781 310.671875 L 344.328125 310.324219 L 343.285156 309.394531 L 343.054688 309.164062 L 342.242188 308.46875 L 341.316406 307.65625 L 341.199219 307.542969 L 340.160156 306.613281 L 338.074219 304.761719 L 337.839844 304.644531 L 337.03125 303.949219 L 336.101562 303.140625 L 335.988281 303.023438 L 334.945312 302.097656 L 334.363281 301.75 L 333.785156 301.285156 L 332.742188 300.359375 L 332.625 300.242188 L 331.585938 299.546875 L 330.773438 298.851562 L 330.542969 298.734375 L 329.382812 297.925781 L 328.917969 297.460938 L 328.339844 296.996094 L 327.066406 296.1875 C 315.59375 287.730469 302.964844 280.542969 289.640625 274.867188 C 296.011719 282.515625 301.921875 291.203125 307.367188 300.707031 C 327.644531 336.394531 340.851562 384.476562 342.589844 437.660156 Z M 404.929688 462.339844 L 342.589844 462.339844 C 340.851562 515.523438 327.644531 563.605469 307.367188 599.292969 C 301.921875 608.796875 296.011719 617.484375 289.640625 625.132812 C 312.234375 615.515625 332.511719 601.613281 349.660156 584.578125 C 377.003906 557.117188 396.121094 521.316406 402.84375 481.34375 L 402.84375 481.109375 L 403.074219 479.71875 L 403.191406 479.023438 L 403.886719 474.273438 L 403.886719 474.160156 L 404.117188 471.839844 L 404.234375 471.378906 L 404.347656 469.988281 L 404.347656 469.523438 L 404.464844 468.597656 L 404.582031 467.207031 L 404.582031 467.089844 L 404.695312 465.699219 L 404.8125 464.65625 L 404.8125 464.308594 L 404.929688 462.917969 Z M 317.910156 462.339844 L 227.417969 462.339844 L 227.417969 638.921875 C 249.78125 633.824219 270.175781 614.9375 286.046875 587.246094 C 304.355469 555.035156 316.289062 511.234375 317.910156 462.339844 Z M 202.738281 462.339844 L 112.25 462.339844 C 113.984375 511.234375 125.804688 555.035156 144.113281 587.246094 C 159.984375 614.9375 180.378906 633.824219 202.738281 638.921875 Z M 87.570312 462.339844 L 25.230469 462.339844 C 28.246094 509.960938 48.867188 552.832031 80.5 584.578125 C 97.648438 601.613281 117.925781 615.515625 140.519531 625.132812 C 134.148438 617.484375 128.238281 608.796875 122.792969 599.292969 C 102.515625 563.605469 89.304688 515.523438 87.570312 462.339844 Z M 356.265625 287.960938 C 359.972656 291.203125 363.5625 294.566406 367.039062 298.039062 L 367.039062 298.15625 C 373.644531 304.761719 379.902344 311.828125 385.578125 319.246094 L 385.695312 319.476562 C 387.546875 321.792969 389.285156 324.109375 390.90625 326.542969 L 391.71875 327.703125 C 395.195312 332.683594 398.4375 337.78125 401.453125 343.113281 L 402.148438 344.273438 L 402.726562 345.3125 L 403.421875 346.472656 L 404.695312 348.789062 L 405.277344 349.949219 L 405.855469 351.109375 L 406.433594 352.265625 L 407.128906 353.425781 C 412.574219 364.316406 417.210938 375.789062 420.800781 387.605469 L 421.035156 388.648438 L 421.148438 389.113281 C 421.960938 391.660156 422.65625 394.09375 423.234375 396.644531 L 423.699219 398.148438 L 423.8125 398.960938 L 424.046875 399.65625 L 424.742188 402.667969 L 425.089844 404.175781 L 425.4375 405.679688 L 425.550781 406.722656 L 425.667969 407.304688 L 426.015625 408.808594 L 426.246094 410.316406 L 426.59375 411.9375 L 427.175781 414.949219 L 427.40625 416.574219 L 427.523438 417.269531 L 427.636719 418.078125 L 427.871094 419.699219 L 427.871094 420.046875 L 428.101562 421.207031 L 428.21875 422.828125 L 428.449219 424.335938 L 428.566406 425.378906 L 428.679688 425.957031 L 428.796875 427.578125 L 428.914062 428.042969 L 428.914062 429.085938 L 429.144531 430.707031 L 429.144531 430.824219 L 429.261719 432.332031 L 429.375 433.488281 L 429.375 433.953125 L 429.492188 435.457031 L 429.492188 436.269531 L 429.609375 437.082031 L 429.722656 438.703125 L 429.722656 440.324219 L 429.839844 441.714844 L 429.839844 443.570312 L 429.953125 444.496094 L 429.953125 455.503906 L 429.839844 456.546875 L 429.839844 458.285156 L 429.722656 459.675781 L 429.722656 461.296875 L 429.609375 462.917969 L 429.492188 463.847656 L 429.492188 464.542969 L 429.375 466.164062 L 429.375 466.511719 L 429.261719 467.667969 L 429.144531 469.292969 L 428.914062 470.914062 L 428.914062 471.957031 L 428.796875 472.535156 L 428.679688 474.042969 L 428.566406 474.738281 L 428.449219 475.664062 L 428.101562 478.792969 L 427.871094 480.066406 L 427.871094 480.414062 L 427.636719 481.921875 L 427.523438 482.730469 L 427.40625 483.425781 L 427.175781 485.050781 C 426.710938 487.597656 426.246094 490.265625 425.667969 492.8125 L 425.550781 493.277344 L 425.4375 494.320312 C 416.746094 535.914062 395.890625 573.109375 367.039062 601.960938 C 363.5625 605.433594 359.972656 608.796875 356.265625 612.039062 C 368.777344 619.6875 382.21875 626.058594 396.46875 630.808594 C 415.238281 636.949219 435.285156 640.3125 456.140625 640.3125 C 508.628906 640.3125 556.25 618.992188 590.664062 584.578125 C 625.074219 550.167969 646.394531 502.546875 646.394531 450.058594 C 646.394531 397.453125 625.074219 349.832031 590.777344 315.421875 L 590.664062 315.421875 C 556.25 281.007812 508.746094 259.6875 456.140625 259.6875 C 435.285156 259.6875 415.238281 263.050781 396.46875 269.304688 C 382.21875 273.941406 368.777344 280.3125 356.265625 287.960938 Z M 356.265625 287.960938 " fill-opacity="1" fill-rule="nonzero"/></g></svg>